<?xml version="1.0" encoding="UTF-8"?>
<svg width="600px" height="600px" viewBox="0 0 600 600" version="1.1" xmlns="http://www.w3.org/2000/svg" xmlns:xlink="http://www.w3.org/1999/xlink">
    <!-- Generator: Sketch 57.1 (83088) - https://sketch.com -->
    <title>Artboard</title>
    <desc>Created with Sketch.</desc>
    <g id="Artboard" stroke="none" stroke-width="1" fill="none" fill-rule="evenodd">
        <g id="Group" transform="translate(50.000000, 24.000000)">
            <path d="M30.6122449,240.820709 L273.159149,254.544725 L419.687615,228.200371 L429.592326,336.597157 L448.795751,377.964907 L441.781286,422.974728 L483.302412,463.067229 L429.592326,474.121555 L419.687615,499.500349 L384.009474,493.57216 L300.371211,513.720368 L285.930651,544.204421 L230.783706,499.500349 L167.368962,551.948052 C182.25879,513.63039 188.059244,494.17176 184.770326,493.57216 C170.847353,491.033875 152.81886,486.926961 130.684845,481.251416 L122.546266,441.641871 L83.5627733,422.974728 L117.134413,386.137708 L94.2768046,368.736717 L83.5627733,331.574415 L94.2768046,290.482252 L105.830411,275.27493 L30.6122449,240.820709 Z" id="face" stroke="#757575" stroke-width="3" fill="#D8D8D8"></path>
            <polygon id="beard" fill="#757575" points="450.937249 352.504638 473.09833 384.642535 442.893656 416.426539 298.796058 412.573317 196.314406 451.762523 148.423006 439.751005 169.297649 408.402884 279.039447 358.662617 315.328299 352.504638"></polygon>
            <polygon id="nose" fill="#757575" points="290.639007 313.543599 298.588426 313.543599 310.760668 342.07317 268.089054 346.938776 271.68149 342.07317 294.877761 335.459159"></polygon>
            <g id="eyes" transform="translate(158.627087, 248.608534)" fill="#757575">
                <polygon id="left" points="98.4433685 24.8207391 98.4433685 55.6586271 0 30.6342388"></polygon>
                <polygon id="right" points="140.633384 21.4730231 212.430427 0 157.084864 48.137191"></polygon>
            </g>
            <g id="hat-2" fill="#757575">
                <polygon id="hat" points="272.202187 24.5975223 411.182693 143.158383 500 155.360544 424.057226 228.086116 272.202187 254.174397 23.7994531 242.583968 76.1892382 188.466874 152.48272 38.1861289 255.770216 55.7047912"></polygon>
                <polygon id="feather" points="67.8065513 17.1922147 152.818991 38.2749013 138.336318 67.8295312 67.8065513 24.6240597 52.28177 24.6240597 25.5163716 46.9987716 5.46402042 67.8295312 0 33.9147656 11.7129278 8.59430787 36.8255354 0"></polygon>
            </g>
        </g>
    </g>
</svg>